<svg xmlns="http://www.w3.org/2000/svg" width="30" height="26" fill="none" viewBox="0 0 30 26"><path fill="url(#paint0_linear_1313_478)" d="M9.33301 14.5001C12.848 14.5001 15.4997 11.8485 15.4997 8.33347C15.4997 4.81847 12.848 2.1668 9.33301 2.1668C5.81801 2.1668 3.16634 4.81847 3.16634 8.33347C3.16634 11.8485 5.81801 14.5001 9.33301 14.5001ZM9.33301 5.25013C11.1491 5.25013 12.4163 6.51738 12.4163 8.33347C12.4163 10.1495 11.1491 11.4168 9.33301 11.4168C7.51692 11.4168 6.24967 10.1495 6.24967 8.33347C6.24967 6.51738 7.51692 5.25013 9.33301 5.25013ZM10.8747 16.0418H7.79134C3.54097 16.0418 0.0830078 19.4998 0.0830078 23.7501V25.2918H3.16634V23.7501C3.16634 21.2002 5.24142 19.1251 7.79134 19.1251H10.8747C13.4246 19.1251 15.4997 21.2002 15.4997 23.7501V25.2918H18.583V23.7501C18.583 19.4998 15.125 16.0418 10.8747 16.0418ZM25.3108 0.0639648L23.1309 2.24388C25.1675 4.28351 26.2913 6.99376 26.2913 9.87513C26.2913 12.7565 25.1675 15.4668 23.1309 17.5064L25.3108 19.6863C27.9317 17.0639 29.3747 13.5798 29.3747 9.87513C29.3747 6.17051 27.9317 2.68634 25.3108 0.0639648V0.0639648Z"/><path fill="url(#paint1_linear_1313_478)" d="M20.9494 4.42383L18.7695 6.60683C19.6437 7.47787 20.1247 8.63874 20.1247 9.87516C20.1247 11.1116 19.6437 12.2725 18.7695 13.1435L20.9494 15.3265C22.4048 13.8712 23.208 11.9364 23.208 9.87516C23.208 7.81395 22.4048 5.87916 20.9494 4.42383Z"/><defs><linearGradient id="paint0_linear_1313_478" x1="14.729" x2="14.729" y1=".064" y2="33.128" gradientUnits="userSpaceOnUse"><stop stop-color="#2942D6"/><stop offset="1" stop-color="#A51DFF"/></linearGradient><linearGradient id="paint1_linear_1313_478" x1="20.989" x2="20.989" y1="4.424" y2="18.713" gradientUnits="userSpaceOnUse"><stop stop-color="#2942D6"/><stop offset="1" stop-color="#A51DFF"/></linearGradient></defs></svg>