<svg width="18" height="19" viewBox="0 0 18 19" fill="none" xmlns="http://www.w3.org/2000/svg">
<path d="M9.23356 11.0994L4.58356 9.14942C4.41527 9.081 4.2664 8.97224 4.15006 8.83271C4.03372 8.69319 3.95349 8.52718 3.91644 8.34934C3.87939 8.17149 3.88665 7.98726 3.9376 7.81289C3.98854 7.63851 4.0816 7.47935 4.20856 7.34942L6.63356 4.77442C6.75821 4.64287 6.9128 4.54338 7.08417 4.48442C7.25553 4.42545 7.43861 4.40877 7.61781 4.43577C7.79701 4.46277 7.96704 4.53267 8.11342 4.63951C8.25981 4.74635 8.37821 4.88698 8.45856 5.04942L10.6836 9.57442C11.1086 10.4994 10.1836 11.4994 9.23356 11.0994Z" fill="#1A80EA"/>
<path d="M9.23356 11.0994L4.58356 9.14942C4.41527 9.081 4.2664 8.97224 4.15006 8.83271C4.03372 8.69319 3.95349 8.52718 3.91644 8.34934C3.87939 8.17149 3.88665 7.98726 3.9376 7.81289C3.98854 7.63851 4.0816 7.47935 4.20856 7.34942L6.63356 4.77442C6.75821 4.64287 6.9128 4.54338 7.08417 4.48442C7.25553 4.42545 7.43861 4.40877 7.61781 4.43577C7.79701 4.46277 7.96704 4.53267 8.11342 4.63951C8.25981 4.74635 8.37821 4.88698 8.45856 5.04942L10.6836 9.57442C11.1086 10.4994 10.1836 11.4994 9.23356 11.0994Z" fill="url(#paint0_linear_15_2)"/>
<path d="M9.23356 11.0994L4.58356 9.14942C4.41527 9.081 4.2664 8.97224 4.15006 8.83271C4.03372 8.69319 3.95349 8.52718 3.91644 8.34934C3.87939 8.17149 3.88665 7.98726 3.9376 7.81289C3.98854 7.63851 4.0816 7.47935 4.20856 7.34942L6.63356 4.77442C6.75821 4.64287 6.9128 4.54338 7.08417 4.48442C7.25553 4.42545 7.43861 4.40877 7.61781 4.43577C7.79701 4.46277 7.96704 4.53267 8.11342 4.63951C8.25981 4.74635 8.37821 4.88698 8.45856 5.04942L10.6836 9.57442C11.1086 10.4994 10.1836 11.4994 9.23356 11.0994Z" fill="url(#paint1_linear_15_2)"/>
<path d="M9.23356 11.0994L4.58356 9.14942C4.41527 9.081 4.2664 8.97224 4.15006 8.83271C4.03372 8.69319 3.95349 8.52718 3.91644 8.34934C3.87939 8.17149 3.88665 7.98726 3.9376 7.81289C3.98854 7.63851 4.0816 7.47935 4.20856 7.34942L6.63356 4.77442C6.75821 4.64287 6.9128 4.54338 7.08417 4.48442C7.25553 4.42545 7.43861 4.40877 7.61781 4.43577C7.79701 4.46277 7.96704 4.53267 8.11342 4.63951C8.25981 4.74635 8.37821 4.88698 8.45856 5.04942L10.6836 9.57442C11.1086 10.4994 10.1836 11.4994 9.23356 11.0994Z" fill="url(#paint2_linear_15_2)"/>
<path d="M15.1336 7.04192L12.0836 2.91442C11.9734 2.76558 11.9001 2.59273 11.8698 2.41006C11.8395 2.2274 11.8529 2.04015 11.9091 1.8637C11.9652 1.68724 12.0624 1.52664 12.1927 1.39507C12.323 1.26351 12.4827 1.16475 12.6586 1.10692L16.0586 0.0494166C16.8086 -0.183083 17.5586 0.436917 17.5086 1.23692L17.1586 6.42192C17.0586 7.48192 15.7586 7.89442 15.1336 7.04192Z" fill="#1A80EA"/>
<path d="M15.1336 7.04192L12.0836 2.91442C11.9734 2.76558 11.9001 2.59273 11.8698 2.41006C11.8395 2.2274 11.8529 2.04015 11.9091 1.8637C11.9652 1.68724 12.0624 1.52664 12.1927 1.39507C12.323 1.26351 12.4827 1.16475 12.6586 1.10692L16.0586 0.0494166C16.8086 -0.183083 17.5586 0.436917 17.5086 1.23692L17.1586 6.42192C17.0586 7.48192 15.7586 7.89442 15.1336 7.04192Z" fill="url(#paint3_linear_15_2)"/>
<path d="M15.1336 7.04192L12.0836 2.91442C11.9734 2.76558 11.9001 2.59273 11.8698 2.41006C11.8395 2.2274 11.8529 2.04015 11.9091 1.8637C11.9652 1.68724 12.0624 1.52664 12.1927 1.39507C12.323 1.26351 12.4827 1.16475 12.6586 1.10692L16.0586 0.0494166C16.8086 -0.183083 17.5586 0.436917 17.5086 1.23692L17.1586 6.42192C17.0586 7.48192 15.7586 7.89442 15.1336 7.04192Z" fill="url(#paint4_linear_15_2)"/>
<path d="M15.1336 7.04192L12.0836 2.91442C11.9734 2.76558 11.9001 2.59273 11.8698 2.41006C11.8395 2.2274 11.8529 2.04015 11.9091 1.8637C11.9652 1.68724 12.0624 1.52664 12.1927 1.39507C12.323 1.26351 12.4827 1.16475 12.6586 1.10692L16.0586 0.0494166C16.8086 -0.183083 17.5586 0.436917 17.5086 1.23692L17.1586 6.42192C17.0586 7.48192 15.7586 7.89442 15.1336 7.04192Z" fill="url(#paint5_linear_15_2)"/>
<path d="M6.48107 17.7244L1.30357 18.3969C1.11714 18.4206 0.927745 18.3986 0.751739 18.3327C0.575734 18.2668 0.418416 18.1591 0.293378 18.0188C0.168341 17.8785 0.0793438 17.7099 0.034078 17.5275C-0.0111879 17.3451 -0.011361 17.1544 0.0335725 16.9719L0.888573 13.3894C0.934566 13.2074 1.02332 13.039 1.14745 12.8982C1.27159 12.7574 1.42753 12.6482 1.60232 12.5798C1.77712 12.5113 1.96572 12.4856 2.15247 12.5046C2.33922 12.5237 2.51872 12.587 2.67607 12.6894L7.00107 15.5944C7.88107 16.2194 7.54357 17.5944 6.48107 17.7219V17.7244Z" fill="#1A80EA"/>
<path d="M6.48107 17.7244L1.30357 18.3969C1.11714 18.4206 0.927745 18.3986 0.751739 18.3327C0.575734 18.2668 0.418416 18.1591 0.293378 18.0188C0.168341 17.8785 0.0793438 17.7099 0.034078 17.5275C-0.0111879 17.3451 -0.011361 17.1544 0.0335725 16.9719L0.888573 13.3894C0.934566 13.2074 1.02332 13.039 1.14745 12.8982C1.27159 12.7574 1.42753 12.6482 1.60232 12.5798C1.77712 12.5113 1.96572 12.4856 2.15247 12.5046C2.33922 12.5237 2.51872 12.587 2.67607 12.6894L7.00107 15.5944C7.88107 16.2194 7.54357 17.5944 6.48107 17.7219V17.7244Z" fill="url(#paint6_linear_15_2)"/>
<path d="M6.48107 17.7244L1.30357 18.3969C1.11714 18.4206 0.927745 18.3986 0.751739 18.3327C0.575734 18.2668 0.418416 18.1591 0.293378 18.0188C0.168341 17.8785 0.0793438 17.7099 0.034078 17.5275C-0.0111879 17.3451 -0.011361 17.1544 0.0335725 16.9719L0.888573 13.3894C0.934566 13.2074 1.02332 13.039 1.14745 12.8982C1.27159 12.7574 1.42753 12.6482 1.60232 12.5798C1.77712 12.5113 1.96572 12.4856 2.15247 12.5046C2.33922 12.5237 2.51872 12.587 2.67607 12.6894L7.00107 15.5944C7.88107 16.2194 7.54357 17.5944 6.48107 17.7219V17.7244Z" fill="url(#paint7_linear_15_2)"/>
<path d="M6.48107 17.7244L1.30357 18.3969C1.11714 18.4206 0.927745 18.3986 0.751739 18.3327C0.575734 18.2668 0.418416 18.1591 0.293378 18.0188C0.168341 17.8785 0.0793438 17.7099 0.034078 17.5275C-0.0111879 17.3451 -0.011361 17.1544 0.0335725 16.9719L0.888573 13.3894C0.934566 13.2074 1.02332 13.039 1.14745 12.8982C1.27159 12.7574 1.42753 12.6482 1.60232 12.5798C1.77712 12.5113 1.96572 12.4856 2.15247 12.5046C2.33922 12.5237 2.51872 12.587 2.67607 12.6894L7.00107 15.5944C7.88107 16.2194 7.54357 17.5944 6.48107 17.7219V17.7244Z" fill="url(#paint8_linear_15_2)"/>
<defs>
<linearGradient id="paint0_linear_15_2" x1="4.73106" y1="6.36692" x2="6.11106" y2="7.66192" gradientUnits="userSpaceOnUse">
<stop stop-color="#2065A3"/>
<stop offset="1" stop-color="#2067AE" stop-opacity="0"/>
</linearGradient>
<linearGradient id="paint1_linear_15_2" x1="6.50856" y1="11.4644" x2="7.27856" y2="9.67942" gradientUnits="userSpaceOnUse">
<stop offset="0.605" stop-color="#1C60FF"/>
<stop offset="1" stop-color="#1963FF" stop-opacity="0"/>
</linearGradient>
<linearGradient id="paint2_linear_15_2" x1="9.41856" y1="6.44442" x2="8.40856" y2="6.97692" gradientUnits="userSpaceOnUse">
<stop stop-color="#2093F1"/>
<stop offset="1" stop-color="#2294F3" stop-opacity="0"/>
</linearGradient>
<linearGradient id="paint3_linear_15_2" x1="14.1836" y1="-0.273083" x2="14.8386" y2="1.88692" gradientUnits="userSpaceOnUse">
<stop stop-color="#2065A3"/>
<stop offset="1" stop-color="#2067AE" stop-opacity="0"/>
</linearGradient>
<linearGradient id="paint4_linear_15_2" x1="13.4411" y1="6.46442" x2="14.8011" y2="5.46942" gradientUnits="userSpaceOnUse">
<stop offset="0.605" stop-color="#1C60FF"/>
<stop offset="1" stop-color="#1963FF" stop-opacity="0"/>
</linearGradient>
<linearGradient id="paint5_linear_15_2" x1="17.3486" y1="2.61692" x2="16.6611" y2="2.58192" gradientUnits="userSpaceOnUse">
<stop stop-color="#2093F1"/>
<stop offset="1" stop-color="#2294F3" stop-opacity="0"/>
</linearGradient>
<linearGradient id="paint6_linear_15_2" x1="0.00357226" y1="15.4519" x2="1.68357" y2="15.8594" gradientUnits="userSpaceOnUse">
<stop stop-color="#2065A3"/>
<stop offset="1" stop-color="#2067AE" stop-opacity="0"/>
</linearGradient>
<linearGradient id="paint7_linear_15_2" x1="3.75357" y1="19.3344" x2="3.59857" y2="17.3444" gradientUnits="userSpaceOnUse">
<stop offset="0.605" stop-color="#1C60FF"/>
<stop offset="1" stop-color="#1963FF" stop-opacity="0"/>
</linearGradient>
<linearGradient id="paint8_linear_15_2" x1="4.77857" y1="13.7394" x2="4.05607" y2="14.7944" gradientUnits="userSpaceOnUse">
<stop stop-color="#2093F1"/>
<stop offset="1" stop-color="#2294F3" stop-opacity="0"/>
</linearGradient>
</defs>
</svg>
