<svg xmlns="http://www.w3.org/2000/svg" width="49" height="59" fill="none" viewBox="0 0 49 59"><path fill="url(#paint0_radial_1_6)" fill-rule="evenodd" d="M6.09143 4.77257L6.31893 5.14257L9.47643 10.2126C11.4046 13.3217 13.3488 16.421 15.3089 19.5101C15.4912 19.7839 15.774 19.9749 16.0961 20.0416C16.4182 20.1083 16.7536 20.0453 17.0296 19.8664C17.3056 19.6874 17.4999 19.4069 17.5705 19.0856C17.641 18.7643 17.5821 18.4282 17.4064 18.1501C15.454 15.0741 13.5173 11.9883 11.5964 8.89257L8.44393 3.82257L7.44393 2.21007L7.38643 2.12257C6.74441 2.88662 6.29973 3.79658 6.09143 4.77257Z" clip-rule="evenodd"/><path fill="#FFC03C" d="M47.9689 39.6626V15.9501C47.7189 13.7001 46.0939 10.6751 41.8764 10.6751C36.9514 10.9126 36.7589 15.9501 36.7589 15.9501L29.2589 2.55007C27.3839 -0.299927 24.3089 -0.499927 22.3839 0.675073C20.4589 1.85007 20.0364 4.23257 20.0364 4.23257L18.4739 2.20007C17.2989 0.275073 13.7839 0.0500736 11.9914 1.14507C9.01392 2.96257 8.58142 6.72507 10.5064 8.80257C10.3814 8.66507 8.22642 8.39257 6.44392 9.66257C4.45642 11.0776 3.92392 14.3501 4.99892 16.3401C6.07392 18.3326 6.22892 18.6451 6.22892 18.6451C6.22892 18.6451 4.56892 17.8651 1.95142 19.6226C0.0789197 20.8801 -0.59108 24.6126 0.58392 26.5376L6.88642 37.1626L15.5614 51.3376C20.6614 58.5676 31.5364 61.0626 39.4364 56.2626C44.8239 52.9926 48.4789 46.0751 47.9664 39.6626H47.9689Z"/><path fill="url(#paint1_radial_1_6)" d="M47.9689 39.6626V15.9501C47.7189 13.7001 46.0939 10.6751 41.8764 10.6751C36.9514 10.9126 36.7589 15.9501 36.7589 15.9501L29.2589 2.55007C27.3839 -0.299927 24.3089 -0.499927 22.3839 0.675073C20.4589 1.85007 20.0364 4.23257 20.0364 4.23257L18.4739 2.20007C17.2989 0.275073 13.7839 0.0500736 11.9914 1.14507C9.01392 2.96257 8.58142 6.72507 10.5064 8.80257C10.3814 8.66507 8.22642 8.39257 6.44392 9.66257C4.45642 11.0776 3.92392 14.3501 4.99892 16.3401C6.07392 18.3326 6.22892 18.6451 6.22892 18.6451C6.22892 18.6451 4.56892 17.8651 1.95142 19.6226C0.0789197 20.8801 -0.59108 24.6126 0.58392 26.5376L6.88642 37.1626L15.5614 51.3376C20.6614 58.5676 31.5364 61.0626 39.4364 56.2626C44.8239 52.9926 48.4789 46.0751 47.9664 39.6626H47.9689Z"/><path fill="url(#paint2_radial_1_6)" d="M47.9689 39.6626V15.9501C47.7189 13.7001 46.0939 10.6751 41.8764 10.6751C36.9514 10.9126 36.7589 15.9501 36.7589 15.9501L29.2589 2.55007C27.3839 -0.299927 24.3089 -0.499927 22.3839 0.675073C20.4589 1.85007 20.0364 4.23257 20.0364 4.23257L18.4739 2.20007C17.2989 0.275073 13.7839 0.0500736 11.9914 1.14507C9.01392 2.96257 8.58142 6.72507 10.5064 8.80257C10.3814 8.66507 8.22642 8.39257 6.44392 9.66257C4.45642 11.0776 3.92392 14.3501 4.99892 16.3401C6.07392 18.3326 6.22892 18.6451 6.22892 18.6451C6.22892 18.6451 4.56892 17.8651 1.95142 19.6226C0.0789197 20.8801 -0.59108 24.6126 0.58392 26.5376L6.88642 37.1626L15.5614 51.3376C20.6614 58.5676 31.5364 61.0626 39.4364 56.2626C44.8239 52.9926 48.4789 46.0751 47.9664 39.6626H47.9689Z"/><path fill="url(#paint3_radial_1_6)" d="M47.9689 39.6626V15.9501C47.7189 13.7001 46.0939 10.6751 41.8764 10.6751C36.9514 10.9126 36.7589 15.9501 36.7589 15.9501L29.2589 2.55007C27.3839 -0.299927 24.3089 -0.499927 22.3839 0.675073C20.4589 1.85007 20.0364 4.23257 20.0364 4.23257L18.4739 2.20007C17.2989 0.275074 13.7839 0.0500736 11.9914 1.14507C9.01392 2.96257 8.58142 6.72507 10.5064 8.80257C10.3814 8.66507 8.22642 8.39257 6.44392 9.66257C4.45642 11.0776 3.92392 14.3501 4.99892 16.3401C6.07392 18.3326 6.22892 18.6451 6.22892 18.6451C6.22892 18.6451 4.56892 17.8651 1.95142 19.6226C0.0789196 20.8801 -0.59108 24.6126 0.58392 26.5376L6.88642 37.1626L15.5614 51.3376C20.6614 58.5676 31.5364 61.0626 39.4364 56.2626C44.8239 52.9926 48.4789 46.0751 47.9664 39.6626H47.9689Z"/><path fill="url(#paint4_linear_1_6)" d="M41.8764 10.6776C36.9514 10.9126 36.7589 15.9526 36.7589 15.9526L41.4464 23.6526C41.4464 23.6526 38.9839 16.6626 41.8764 10.6776V10.6776Z"/><g filter="url(#filter0_f_1_6)"><path fill="url(#paint5_radial_1_6)" d="M47.3064 40.6076L45.8989 18.2251C45.6739 16.2001 45.0089 11.7001 41.2114 11.7001L40.4289 24.5926L34.4139 15.1376L28.3214 4.35757C27.2214 2.68757 26.4839 2.44257 25.6264 2.24757C24.7664 2.05257 22.2264 2.05257 22.7739 2.99007C23.3214 3.92757 29.6489 13.3801 31.9539 17.3251C32.8114 18.7976 29.3314 21.3101 28.0089 19.4351C26.6839 17.5601 17.3839 3.73257 17.3839 3.73257C16.3264 2.00007 12.6164 1.32757 12.6164 2.99007C12.6164 4.67757 21.5214 15.6501 23.5164 21.0751C24.3114 23.2376 21.3539 24.6651 20.2739 22.9901C19.1939 21.3151 14.6489 13.8101 12.3839 10.7651C11.6014 9.71257 9.32392 8.52507 8.55642 9.47507C7.06392 11.3226 8.79892 14.0876 9.76642 15.8801C10.2664 16.8051 15.9389 25.3401 18.1664 29.1626C19.2464 31.0201 15.3914 32.7551 14.3764 31.4676C13.3589 30.1776 10.6539 24.3601 8.08642 21.0751C6.82142 19.4576 4.25392 19.5376 3.47642 20.0601C1.79142 21.1926 3.23142 24.1551 4.28892 25.8851C9.25392 35.0051 24.8039 63.9351 39.0239 55.2951C43.8739 52.3501 47.7664 46.3801 47.3064 40.6076Z"/></g><path fill="url(#paint6_radial_1_6)" d="M6.52143 18.6976C6.41316 18.6536 6.30397 18.6119 6.19393 18.5726C5.80122 17.8259 5.40371 17.0817 5.00143 16.3401C4.90068 16.1523 4.8154 15.9567 4.74643 15.7551C5.57893 15.7451 6.57893 16.0226 7.46393 16.3801C8.53349 16.8051 9.52589 17.4031 10.4014 18.1501C10.9064 18.6001 11.4389 19.3301 11.9389 20.0926C12.4589 20.8876 13.0164 21.8351 13.5714 22.8026C13.9089 23.3901 14.2439 23.9826 14.5689 24.5576C15.2252 25.7548 15.9147 26.9336 16.6364 28.0926C16.7256 28.2305 16.7867 28.3846 16.8162 28.5461C16.8458 28.7076 16.8433 28.8733 16.8088 29.0338C16.7744 29.1944 16.7086 29.3465 16.6153 29.4817C16.522 29.6168 16.4031 29.7322 16.2652 29.8213C16.1273 29.9105 15.9732 29.9716 15.8117 30.0011C15.6502 30.0307 15.4844 30.0282 15.3239 29.9937C15.1634 29.9593 15.0112 29.8935 14.8761 29.8002C14.741 29.7069 14.6256 29.588 14.5364 29.4501C13.9064 28.4751 13.1289 27.0951 12.3439 25.7001C12.0327 25.1472 11.7194 24.5955 11.4039 24.0451C10.8539 23.0876 10.3239 22.1926 9.84643 21.4626C9.34643 20.7001 8.97143 20.2251 8.74143 20.0176C8.07755 19.4606 7.32785 19.0148 6.52143 18.6976V18.6976Z"/><path fill="url(#paint7_radial_1_6)" d="M10.3089 8.70757C9.98216 8.64294 9.64942 8.61361 9.31641 8.62007C9.77641 8.58507 10.1114 8.64257 10.3089 8.70507V8.70757Z"/><path fill="url(#paint8_radial_1_6)" d="M13.5265 10.3476C12.6567 9.55194 11.5955 8.99548 10.4464 8.73257C9.8101 8.00182 9.42843 7.08407 9.35895 6.11758C10.8539 6.10258 13.0989 6.62508 15.1864 8.48008C15.7014 8.93758 16.354 9.85257 16.999 10.8301C17.679 11.8651 18.4564 13.1351 19.2339 14.4301C19.8139 15.3976 20.3889 16.3751 20.9264 17.2876C21.8514 18.8551 22.6639 20.2376 23.1989 21.0626C23.2881 21.2005 23.3492 21.3546 23.3788 21.5161C23.4084 21.6776 23.4058 21.8433 23.3714 22.0038C23.3369 22.1644 23.2711 22.3165 23.1778 22.4517C23.0846 22.5868 22.9656 22.7022 22.8277 22.7913C22.6898 22.8805 22.5357 22.9416 22.3742 22.9711C22.2127 23.0007 22.047 22.9982 21.8864 22.9637C21.7259 22.9293 21.5737 22.8635 21.4386 22.7702C21.3035 22.6769 21.1881 22.558 21.0989 22.4201C20.2859 21.1189 19.4941 19.8046 18.7239 18.4776C18.1939 17.5751 17.6364 16.6276 17.0889 15.7151C16.3871 14.5312 15.6611 13.3618 14.9114 12.2076C14.2264 11.1676 13.749 10.5476 13.5265 10.3476V10.3476Z"/><path fill="url(#paint9_linear_1_6)" d="M20.0489 4.19007L20.0789 4.24257L23.2364 9.31757C25.1646 12.4251 27.1088 15.5226 29.0689 18.6101C29.1581 18.748 29.2735 18.8669 29.4086 18.9602C29.5437 19.0535 29.6959 19.1193 29.8564 19.1537C30.0169 19.1882 30.1827 19.1907 30.3442 19.1611C30.5057 19.1316 30.6598 19.0705 30.7977 18.9813C30.9356 18.8922 31.0545 18.7768 31.1478 18.6416C31.2411 18.5065 31.3069 18.3544 31.3413 18.1938C31.3758 18.0333 31.3783 17.8676 31.3487 17.7061C31.3192 17.5445 31.2581 17.3905 31.1689 17.2526C29.2156 14.1764 27.2789 11.0897 25.3589 7.99257C24.1714 6.09007 23.0389 4.26757 22.2039 2.92257L21.3539 1.55257C20.7127 2.31372 20.265 3.21858 20.0489 4.19007V4.19007Z"/><g filter="url(#filter1_f_1_6)"><path stroke="#FFE240" stroke-linecap="round" stroke-linejoin="round" d="M9.49393 10.9976C10.5614 11.0751 11.4539 11.2401 12.7039 13.1776C13.9539 15.1151 17.9639 21.6926 20.0489 24.9751"/></g><g filter="url(#filter2_f_1_6)"><path stroke="#FFE240" stroke-linecap="round" stroke-linejoin="round" d="M5.35144 20.6076C6.41894 20.6851 7.31394 20.8501 8.56394 22.7876C9.81394 24.7251 12.0964 29.2026 14.1789 32.4826"/></g><g filter="url(#filter3_f_1_6)"><path stroke="url(#paint10_linear_1_6)" stroke-linecap="round" stroke-linejoin="round" stroke-width="2" d="M8.08643 15.0601C9.15393 15.1376 10.3614 15.5826 11.6114 17.5201C12.8614 19.4576 15.5364 24.9051 17.6164 28.1851"/></g><g filter="url(#filter4_f_1_6)"><path stroke="url(#paint11_linear_1_6)" stroke-linecap="round" stroke-linejoin="round" stroke-width="2" d="M12.4614 5.76507C13.5289 5.84007 16.0639 6.64007 17.3139 8.57507C18.5639 10.5126 22.0964 17.3251 24.1814 20.6076"/></g><g filter="url(#filter5_f_1_6)"><path stroke="#FFE240" stroke-linecap="round" stroke-linejoin="round" d="M15.0314 3.19007C16.0989 3.26757 16.9939 3.43257 18.2439 5.37007C19.4939 7.30757 26.3939 17.7176 28.4764 20.9976"/></g><g filter="url(#filter6_f_1_6)"><path stroke="#FFE240" stroke-linecap="round" stroke-linejoin="round" d="M24.3939 2.60757C25.4614 2.68757 26.3539 2.85007 27.6039 4.78757C28.8539 6.72507 35.8339 19.7101 37.9164 22.9901"/></g><g filter="url(#filter7_f_1_6)"><path stroke="#FFE240" stroke-linecap="round" stroke-linejoin="round" d="M43.9514 13.3376C44.8389 13.9376 45.5314 14.5251 45.6514 16.8276C45.7664 19.1301 45.3414 33.8651 45.5114 37.7476"/></g><defs><filter id="filter0_f_1_6" width="46.64" height="56.852" x="1.703" y="1.034" color-interpolation-filters="sRGB" filterUnits="userSpaceOnUse"><feFlood flood-opacity="0" result="BackgroundImageFix"/><feBlend in="SourceGraphic" in2="BackgroundImageFix" mode="normal" result="shape"/><feGaussianBlur result="effect1_foregroundBlur_1_6" stdDeviation=".5"/></filter><filter id="filter1_f_1_6" width="13.555" height="16.978" x="7.994" y="9.498" color-interpolation-filters="sRGB" filterUnits="userSpaceOnUse"><feFlood flood-opacity="0" result="BackgroundImageFix"/><feBlend in="SourceGraphic" in2="BackgroundImageFix" mode="normal" result="shape"/><feGaussianBlur result="effect1_foregroundBlur_1_6" stdDeviation=".5"/></filter><filter id="filter2_f_1_6" width="11.828" height="14.875" x="3.851" y="19.108" color-interpolation-filters="sRGB" filterUnits="userSpaceOnUse"><feFlood flood-opacity="0" result="BackgroundImageFix"/><feBlend in="SourceGraphic" in2="BackgroundImageFix" mode="normal" result="shape"/><feGaussianBlur result="effect1_foregroundBlur_1_6" stdDeviation=".5"/></filter><filter id="filter3_f_1_6" width="12.53" height="16.125" x="6.586" y="13.56" color-interpolation-filters="sRGB" filterUnits="userSpaceOnUse"><feFlood flood-opacity="0" result="BackgroundImageFix"/><feBlend in="SourceGraphic" in2="BackgroundImageFix" mode="normal" result="shape"/><feGaussianBlur result="effect1_foregroundBlur_1_6" stdDeviation=".25"/></filter><filter id="filter4_f_1_6" width="14.72" height="17.843" x="10.961" y="4.265" color-interpolation-filters="sRGB" filterUnits="userSpaceOnUse"><feFlood flood-opacity="0" result="BackgroundImageFix"/><feBlend in="SourceGraphic" in2="BackgroundImageFix" mode="normal" result="shape"/><feGaussianBlur result="effect1_foregroundBlur_1_6" stdDeviation=".25"/></filter><filter id="filter5_f_1_6" width="16.445" height="20.808" x="13.531" y="1.69" color-interpolation-filters="sRGB" filterUnits="userSpaceOnUse"><feFlood flood-opacity="0" result="BackgroundImageFix"/><feBlend in="SourceGraphic" in2="BackgroundImageFix" mode="normal" result="shape"/><feGaussianBlur result="effect1_foregroundBlur_1_6" stdDeviation=".5"/></filter><filter id="filter6_f_1_6" width="16.523" height="23.383" x="22.894" y="1.108" color-interpolation-filters="sRGB" filterUnits="userSpaceOnUse"><feFlood flood-opacity="0" result="BackgroundImageFix"/><feBlend in="SourceGraphic" in2="BackgroundImageFix" mode="normal" result="shape"/><feGaussianBlur result="effect1_foregroundBlur_1_6" stdDeviation=".5"/></filter><filter id="filter7_f_1_6" width="4.72" height="27.41" x="42.451" y="11.838" color-interpolation-filters="sRGB" filterUnits="userSpaceOnUse"><feFlood flood-opacity="0" result="BackgroundImageFix"/><feBlend in="SourceGraphic" in2="BackgroundImageFix" mode="normal" result="shape"/><feGaussianBlur result="effect1_foregroundBlur_1_6" stdDeviation=".5"/></filter><radialGradient id="paint0_radial_1_6" cx="0" cy="0" r="1" gradientTransform="translate(8.08643 12.4051) rotate(-42.1844) scale(3.37388 11.077)" gradientUnits="userSpaceOnUse"><stop stop-color="#DB5703"/><stop offset=".595" stop-color="#C94A04"/><stop offset="1" stop-color="#D65A05" stop-opacity="0"/></radialGradient><radialGradient id="paint1_radial_1_6" cx="0" cy="0" r="1" gradientTransform="translate(29.4939 34.0451) rotate(73.365) scale(26.7443 17.7518)" gradientUnits="userSpaceOnUse"><stop stop-color="#FFD945"/><stop offset=".633" stop-color="#FFD343"/><stop offset="1" stop-color="#FFD543" stop-opacity="0"/></radialGradient><radialGradient id="paint2_radial_1_6" cx="0" cy="0" r="1" gradientTransform="translate(48.0189 23.2651) rotate(98.436) scale(36.8045 9.71954)" gradientUnits="userSpaceOnUse"><stop stop-color="#FFE044"/><stop offset="1" stop-color="#FFE143" stop-opacity="0"/></radialGradient><radialGradient id="paint3_radial_1_6" cx="0" cy="0" r="1" gradientTransform="translate(24.8072 66.8562) rotate(-124.618) scale(58.858 46.3222)" gradientUnits="userSpaceOnUse"><stop stop-color="#FA825D"/><stop offset=".883" stop-color="#F67B7D" stop-opacity="0"/></radialGradient><linearGradient id="paint4_linear_1_6" x1="37.149" x2="42.266" y1="17.165" y2="16.818" gradientUnits="userSpaceOnUse"><stop stop-color="#D48820"/><stop offset=".345" stop-color="#E39C2A" stop-opacity=".649"/><stop offset=".735" stop-color="#FFC03C" stop-opacity="0"/></linearGradient><radialGradient id="paint5_radial_1_6" cx="0" cy="0" r="1" gradientTransform="translate(34.4936 34.8262) rotate(134.506) scale(25.6335 67.067)" gradientUnits="userSpaceOnUse"><stop stop-color="#FFDB45"/><stop offset=".484" stop-color="#FFD646"/><stop offset=".915" stop-color="#FFDA45" stop-opacity="0"/><stop offset=".97" stop-color="#FFDA45" stop-opacity="0"/></radialGradient><radialGradient id="paint6_radial_1_6" cx="0" cy="0" r="1" gradientTransform="translate(9.72893 22.8876) rotate(57.126) scale(13.0979 2.4536)" gradientUnits="userSpaceOnUse"><stop stop-color="#B64200"/><stop offset="1" stop-color="#FFB02E" stop-opacity="0"/></radialGradient><radialGradient id="paint7_radial_1_6" cx="0" cy="0" r="1" gradientTransform="translate(15.1171 14.554) rotate(57.5209) scale(15.4221 2.87075)" gradientUnits="userSpaceOnUse"><stop stop-color="#B64200"/><stop offset="1" stop-color="#FFB02E" stop-opacity="0"/></radialGradient><radialGradient id="paint8_radial_1_6" cx="0" cy="0" r="1" gradientTransform="translate(15.1171 14.554) rotate(57.521) scale(15.4221 2.87075)" gradientUnits="userSpaceOnUse"><stop stop-color="#B64200"/><stop offset="1" stop-color="#FFB02E" stop-opacity="0"/></radialGradient><linearGradient id="paint9_linear_1_6" x1="23.556" x2="25.709" y1="9.828" y2="8.578" gradientUnits="userSpaceOnUse"><stop stop-color="#E49224"/><stop offset=".589" stop-color="#FFB02E" stop-opacity="0"/></linearGradient><linearGradient id="paint10_linear_1_6" x1="9.101" x2="13.869" y1="20.453" y2="17.718" gradientUnits="userSpaceOnUse"><stop stop-color="#FDB137"/><stop offset=".447" stop-color="#FFBA3C" stop-opacity="0"/><stop offset="1" stop-color="#FCAD33" stop-opacity="0"/></linearGradient><linearGradient id="paint11_linear_1_6" x1="14.806" x2="19.571" y1="11.508" y2="8.775" gradientUnits="userSpaceOnUse"><stop stop-color="#FDB137"/><stop offset=".447" stop-color="#FFBA3C" stop-opacity="0"/><stop offset="1" stop-color="#FCAD33" stop-opacity="0"/></linearGradient></defs></svg>