<svg width="100" height="100" viewBox="0 0 100 100" fill="none" xmlns="http://www.w3.org/2000/svg">
<path fill-rule="evenodd" clip-rule="evenodd" d="M43.6508 6.34921C43.6508 2.84264 46.4934 0 50 0C77.6142 0 100 22.3858 100 50C100 77.6142 77.6142 100 50 100C22.3858 100 0 77.6142 0 50C0 46.4934 2.84264 43.6508 6.34921 43.6508C9.85578 43.6508 12.6984 46.4934 12.6984 50C12.6984 70.6011 29.3989 87.3016 50 87.3016C70.6011 87.3016 87.3016 70.6011 87.3016 50C87.3016 29.3989 70.6011 12.6984 50 12.6984C46.4934 12.6984 43.6508 9.85578 43.6508 6.34921Z" fill="#852FF2"/>
</svg>
