<svg xmlns="http://www.w3.org/2000/svg" width="20" height="14" fill="none" viewBox="0 0 20 14"><path fill="#862FF2" d="M17.7654 1.15224L18.1481 0.228361V0.228361L17.7654 1.15224ZM18.9999 3.99999V4.99999C19.5522 4.99999 19.9999 4.55227 19.9999 3.99999H18.9999ZM18.8477 2.23462L19.7715 1.85194L18.8477 2.23462ZM1 3.99999H0C0 4.55227 0.447715 4.99999 1 4.99999L1 3.99999ZM17.7654 12.8478L18.1481 13.7717L17.7654 12.8478ZM18.9999 10H19.9999C19.9999 9.44771 19.5522 9 18.9999 9V10ZM18.8477 11.7654L17.9238 11.3827L18.8477 11.7654ZM1 10L1 9C0.734784 9 0.48043 9.10536 0.292893 9.29289C0.105357 9.48043 0 9.73478 0 10H1ZM1.15224 11.7654L0.228361 12.1481H0.228361L1.15224 11.7654ZM4 2H16V0H4V2ZM16 2C16.4796 2 16.7893 2.00054 17.0262 2.01671C17.2542 2.03227 17.3411 2.05888 17.3827 2.07612L18.1481 0.228361C17.8221 0.0933574 17.4922 0.0438537 17.1624 0.0213497C16.8415 -0.000541568 16.4523 0 16 0V2ZM19.9999 3.99999C19.9999 3.54773 20.0004 3.15845 19.9785 2.8376C19.956 2.50778 19.9065 2.17786 19.7715 1.85194L17.9238 2.6173C17.941 2.65892 17.9676 2.74575 17.9832 2.97375C17.9994 3.21073 17.9999 3.52036 17.9999 3.99999H19.9999ZM17.3827 2.07612C17.6276 2.17758 17.8222 2.37219 17.9238 2.6173L19.7715 1.85194C19.4671 1.11693 18.8832 0.532877 18.1481 0.228361L17.3827 2.07612ZM2 3.99999C2 3.52036 2.00054 3.21073 2.01671 2.97375C2.03227 2.74575 2.05888 2.65892 2.07612 2.6173L0.228361 1.85194C0.0933574 2.17786 0.0438537 2.50777 0.0213497 2.8376C-0.000541568 3.15845 0 3.54773 0 3.99999H2ZM4 0C3.54775 0 3.15852 -0.000541806 2.83772 0.0213506C2.5079 0.0438584 2.17807 0.0933712 1.85218 0.228361L2.61755 2.07612C2.65919 2.05887 2.74599 2.03226 2.97389 2.01671C3.2108 2.00054 3.52037 2 4 2V0ZM2.07612 2.6173C2.17752 2.3725 2.3723 2.17771 2.61755 2.07612L1.85218 0.228361C1.11732 0.532752 0.532935 1.11663 0.228361 1.85194L2.07612 2.6173ZM4 14H16V12H4V14ZM16 14C16.4522 14 16.8415 14.0005 17.1624 13.9787C17.4922 13.9562 17.8221 13.9067 18.1481 13.7717L17.3827 11.9239C17.3411 11.9411 17.2543 11.9677 17.0263 11.9833C16.7893 11.9995 16.4796 12 16 12V14ZM17.9999 10C17.9999 10.4796 17.9994 10.7893 17.9832 11.0262C17.9676 11.2542 17.941 11.3411 17.9238 11.3827L19.7715 12.1481C19.9065 11.8221 19.956 11.4922 19.9785 11.1624C20.0004 10.8415 19.9999 10.4523 19.9999 10H17.9999ZM18.1481 13.7717C18.8832 13.4671 19.4671 12.883 19.7715 12.1481L17.9238 11.3827C17.8222 11.6278 17.6276 11.8225 17.3827 11.9239L18.1481 13.7717ZM0 10C0 10.4523 -0.000541568 10.8415 0.0213497 11.1624C0.0438537 11.4922 0.0933575 11.8221 0.228361 12.1481L2.07612 11.3827C2.05888 11.3411 2.03227 11.2542 2.01671 11.0262C2.00054 10.7893 2 10.4796 2 10H0ZM4 12C3.52036 12 3.21079 11.9995 2.97387 11.9833C2.74597 11.9677 2.65918 11.9411 2.61755 11.9239L1.85218 13.7717C2.17809 13.9067 2.50793 13.9562 2.83774 13.9787C3.15853 14.0005 3.54776 14 4 14V12ZM0.228361 12.1481C0.532922 12.8833 1.11729 13.4673 1.85218 13.7717L2.61755 11.9239C2.37233 11.8223 2.17754 11.6275 2.07612 11.3827L0.228361 12.1481ZM18.9999 9C17.8954 9 17 8.10461 17 7H15C15 9.20909 16.7907 11 18.9999 11V9ZM17 7C17 5.89538 17.8954 4.99999 18.9999 4.99999V2.99999C16.7907 2.99999 15 4.79091 15 7H17ZM1 4.99999C2.10456 4.99999 3 5.89542 3 7H5C5 4.79087 3.20915 2.99999 1 2.99999V4.99999ZM3 7C3 8.10457 2.10457 9 1 9L1 11C3.20914 11 5 9.20914 5 7H3Z"/><path fill="#862FF2" d="M13.371 9.387C13.371 9.83767 13.254 10.2623 13.02 10.661C12.7947 11.051 12.4567 11.376 12.006 11.636C11.564 11.8873 11.0397 12.0347 10.433 12.078V13.131H9.601V12.065C8.73433 11.987 8.03667 11.727 7.508 11.285C6.97933 10.8343 6.70633 10.2277 6.689 9.465H8.639C8.691 10.089 9.01167 10.466 9.601 10.596V8.113C8.977 7.957 8.47433 7.801 8.093 7.645C7.71167 7.489 7.38233 7.23767 7.105 6.891C6.82767 6.54433 6.689 6.072 6.689 5.474C6.689 4.72 6.95767 4.10467 7.495 3.628C8.041 3.15133 8.743 2.87833 9.601 2.809V1.756H10.433V2.809C11.265 2.87833 11.928 3.12967 12.422 3.563C12.9247 3.99633 13.2063 4.59433 13.267 5.357H11.304C11.278 5.10567 11.187 4.889 11.031 4.707C10.8837 4.51633 10.6843 4.382 10.433 4.304V6.761C11.083 6.92567 11.5943 7.086 11.967 7.242C12.3483 7.38933 12.6777 7.63633 12.955 7.983C13.2323 8.321 13.371 8.789 13.371 9.387ZM8.587 5.383C8.587 5.669 8.67367 5.903 8.847 6.085C9.02033 6.25833 9.27167 6.40133 9.601 6.514V4.265C9.289 4.30833 9.042 4.42533 8.86 4.616C8.678 4.80667 8.587 5.06233 8.587 5.383ZM10.433 10.622C10.7623 10.5613 11.018 10.427 11.2 10.219C11.3907 10.011 11.486 9.75967 11.486 9.465C11.486 9.179 11.395 8.94933 11.213 8.776C11.031 8.60267 10.771 8.45967 10.433 8.347V10.622Z"/></svg>