<svg width="19" height="20" viewBox="0 0 19 20" fill="none" xmlns="http://www.w3.org/2000/svg">
<path d="M17.5 10.2L18.5 10.2L18.5 10.2L17.5 10.2ZM17.5 15.8L16.5 15.8L16.5 15.8L17.5 15.8ZM14.3002 19L14.3002 20L14.3002 20L14.3002 19ZM4.7002 19L4.7002 18L4.7002 18L4.7002 19ZM17.2822 17.908L18.1732 18.362L18.1732 18.362L17.2822 17.908ZM16.4078 18.782L16.8618 19.673L16.8618 19.673L16.4078 18.782ZM16.4078 7.21799L16.8618 6.32698L16.8618 6.32698L16.4078 7.21799ZM17.2822 8.09204L18.1732 7.63805L18.1732 7.63805L17.2822 8.09204ZM1.71799 8.09204L0.82698 7.63805L0.82698 7.63805L1.71799 8.09204ZM2.5918 7.21799L3.04579 8.10899L3.04579 8.10899L2.5918 7.21799ZM1.71799 17.908L2.60899 17.454L2.60899 17.454L1.71799 17.908ZM2.5918 18.782L2.13781 19.673L2.5918 18.782ZM12.5 4L13.5 4L13.5 4L12.5 4ZM12.5 6.76923L11.5 6.76923L11.5 6.76923L12.5 6.76923ZM12.2689 7L12.2689 8L12.2689 8L12.2689 7ZM6.73047 7L6.73047 6L6.73047 6L6.73047 7ZM2.5 15.8V10.2H0.5V15.8H2.5ZM4.7002 8H14.3002V6H4.7002V8ZM16.5 10.2V15.8H18.5V10.2H16.5ZM14.3002 18H4.7002V20H14.3002V18ZM16.5 15.8C16.5 16.3766 16.4993 16.7489 16.4762 17.0323C16.454 17.3041 16.4163 17.4047 16.3912 17.454L18.1732 18.362C18.3661 17.9835 18.4373 17.5902 18.4696 17.1949C18.5008 16.8112 18.5 16.3434 18.5 15.8L16.5 15.8ZM14.3002 20C14.8438 20 15.3115 20.0008 15.6951 19.9694C16.0904 19.9371 16.4835 19.8657 16.8618 19.673L15.9538 17.891C15.9043 17.9162 15.8036 17.9539 15.5321 17.9761C15.2489 17.9992 14.8767 18 14.3002 18L14.3002 20ZM16.3912 17.454C16.2956 17.6417 16.1425 17.7948 15.9538 17.891L16.8618 19.673C17.4257 19.3856 17.8853 18.927 18.1732 18.362L16.3912 17.454ZM14.3002 8C14.8768 8 15.2489 8.00078 15.5321 8.02393C15.8036 8.04611 15.9043 8.08377 15.9538 8.10899L16.8618 6.32698C16.4835 6.13421 16.0904 6.06288 15.6951 6.03057C15.3115 5.99922 14.8437 6 14.3002 6V8ZM18.5 10.2C18.5 9.6565 18.5008 9.1887 18.4695 8.80511C18.4373 8.40983 18.3661 8.01653 18.1732 7.63805L16.3912 8.54603C16.4164 8.59537 16.454 8.69598 16.4762 8.96767C16.4993 9.25105 16.5 9.6233 16.5 10.2L18.5 10.2ZM15.9538 8.10899C16.1424 8.20508 16.2956 8.35828 16.3912 8.54603L18.1732 7.63805C17.8854 7.07316 17.4259 6.61439 16.8618 6.32698L15.9538 8.10899ZM2.5 10.2C2.5 9.6234 2.50078 9.25114 2.52393 8.96783C2.54612 8.69619 2.5838 8.59549 2.60899 8.54603L0.82698 7.63805C0.634191 8.01642 0.562872 8.40961 0.53057 8.80495C0.499222 9.18861 0.5 9.6564 0.5 10.2H2.5ZM4.7002 6C4.15663 6 3.68874 5.99922 3.30498 6.03057C2.90962 6.06286 2.51624 6.13416 2.13781 6.32698L3.04579 8.10899C3.09517 8.08383 3.19595 8.04613 3.4678 8.02393C3.75126 8.00078 4.12365 8 4.7002 8V6ZM2.60899 8.54603C2.705 8.35761 2.85788 8.20474 3.04579 8.10899L2.13781 6.32698C1.57306 6.61473 1.11447 7.07382 0.82698 7.63805L2.60899 8.54603ZM0.5 15.8C0.5 16.3435 0.499222 16.8113 0.530569 17.195C0.562868 17.5904 0.63418 17.9836 0.826981 18.362L2.60899 17.454C2.58381 17.4046 2.54613 17.3039 2.52393 17.0322C2.50078 16.7488 2.5 16.3765 2.5 15.8H0.5ZM4.7002 18C4.12367 18 3.75127 17.9992 3.46782 17.9761C3.19598 17.9538 3.09519 17.9161 3.04579 17.891L2.13781 19.673C2.51623 19.8658 2.90959 19.9371 3.30496 19.9694C3.68873 20.0008 4.15662 20 4.7002 20L4.7002 18ZM0.826981 18.362C1.11452 18.9264 1.57317 19.3853 2.13781 19.673L3.04579 17.891C2.85778 17.7952 2.70494 17.6424 2.60899 17.454L0.826981 18.362ZM7.5 6.76923V4H5.5V6.76923H7.5ZM11.5 4V6.76923H13.5V4H11.5ZM12.2689 6H6.73047V8H12.2689V6ZM11.5 6.76923C11.5 6.3427 11.8458 6 12.2689 6L12.2689 8C12.947 8 13.5 7.45067 13.5 6.76923L11.5 6.76923ZM9.5 2C10.6046 2 11.5 2.89543 11.5 4L13.5 4C13.5 1.79086 11.7091 0 9.5 0V2ZM7.5 4C7.5 2.89543 8.39543 2 9.5 2V0C7.29086 0 5.5 1.79086 5.5 4H7.5ZM5.5 6.76923C5.5 7.44727 6.04904 8 6.73047 8L6.73047 6C7.157 6 7.5 6.34609 7.5 6.76923H5.5Z" fill="#17131C"/>
</svg>
