<svg width="33" height="29" viewBox="0 0 33 29" fill="none" xmlns="http://www.w3.org/2000/svg">
<path d="M11.3333 16.5C14.8483 16.5 17.5 13.8483 17.5 10.3333C17.5 6.81833 14.8483 4.16667 11.3333 4.16667C7.81833 4.16667 5.16667 6.81833 5.16667 10.3333C5.16667 13.8483 7.81833 16.5 11.3333 16.5ZM11.3333 7.25C13.1494 7.25 14.4167 8.51725 14.4167 10.3333C14.4167 12.1494 13.1494 13.4167 11.3333 13.4167C9.51725 13.4167 8.25 12.1494 8.25 10.3333C8.25 8.51725 9.51725 7.25 11.3333 7.25ZM12.875 18.0417H9.79167C5.54129 18.0417 2.08333 21.4996 2.08333 25.75V27.2917H5.16667V25.75C5.16667 23.2001 7.24175 21.125 9.79167 21.125H12.875C15.4249 21.125 17.5 23.2001 17.5 25.75V27.2917H20.5833V25.75C20.5833 21.4996 17.1254 18.0417 12.875 18.0417ZM27.3112 2.06383L25.1313 4.24375C27.1678 6.28338 28.2917 8.99363 28.2917 11.875C28.2917 14.7564 27.1678 17.4666 25.1313 19.5063L27.3112 21.6862C29.932 19.0638 31.375 15.5796 31.375 11.875C31.375 8.17038 29.932 4.68621 27.3112 2.06383V2.06383Z" fill="#FAFAFA"/>
<path d="M22.9498 6.42367L20.7699 8.60667C21.644 9.47771 22.125 10.6386 22.125 11.875C22.125 13.1114 21.644 14.2723 20.7699 15.1433L22.9498 17.3263C24.4051 15.871 25.2083 13.9362 25.2083 11.875C25.2083 9.81379 24.4051 7.879 22.9498 6.42367Z" fill="#FAFAFA"/>
</svg>
