<svg xmlns="http://www.w3.org/2000/svg" width="48" height="59" fill="none" viewBox="0 0 48 59"><path fill="#FF9D25" d="M47.4889 39.266L47.1039 15.791C46.8539 13.561 45.6339 10.5685 41.4564 10.5685C36.5814 10.801 36.3914 15.7885 36.3914 15.7885L28.9664 2.526C27.1089 -0.298998 24.0639 -0.493998 22.1589 0.668502C20.2514 1.831 19.8364 4.1885 19.8364 4.1885L18.2914 2.176C17.1264 0.271003 13.6464 0.0510032 11.8714 1.1335C8.92392 2.931 8.49642 6.656 10.4014 8.7135C10.2764 8.5785 8.82142 8.0735 6.37892 9.5635C4.47392 10.726 3.88392 14.2035 4.94892 16.176C6.01142 18.151 6.16642 18.4585 6.16642 18.4585C6.16642 18.4585 4.52392 17.6835 1.93142 19.426C0.0789209 20.671 -0.586079 24.366 0.578921 26.271L6.81892 36.7935L15.4064 50.826C20.4564 57.9835 31.2214 60.4535 39.0439 55.701C44.3789 52.461 47.9964 45.616 47.4889 39.266V39.266Z"/><path fill="url(#paint0_linear_1_59)" d="M47.4889 39.266L47.1039 15.791C46.8539 13.561 45.6339 10.5685 41.4564 10.5685C36.5814 10.801 36.3914 15.7885 36.3914 15.7885L28.9664 2.526C27.1089 -0.298998 24.0639 -0.493998 22.1589 0.668502C20.2514 1.831 19.8364 4.1885 19.8364 4.1885L18.2914 2.176C17.1264 0.271003 13.6464 0.0510032 11.8714 1.1335C8.92392 2.931 8.49642 6.656 10.4014 8.7135C10.2764 8.5785 8.82142 8.0735 6.37892 9.5635C4.47392 10.726 3.88392 14.2035 4.94892 16.176C6.01142 18.151 6.16642 18.4585 6.16642 18.4585C6.16642 18.4585 4.52392 17.6835 1.93142 19.426C0.0789209 20.671 -0.586079 24.366 0.578921 26.271L6.81892 36.7935L15.4064 50.826C20.4564 57.9835 31.2214 60.4535 39.0439 55.701C44.3789 52.461 47.9964 45.616 47.4889 39.266V39.266Z"/><path fill="url(#paint1_radial_1_59)" d="M47.4889 39.266L47.1039 15.791C46.8539 13.561 45.6339 10.5685 41.4564 10.5685C36.5814 10.801 36.3914 15.7885 36.3914 15.7885L28.9664 2.526C27.1089 -0.298998 24.0639 -0.493998 22.1589 0.668502C20.2514 1.831 19.8364 4.1885 19.8364 4.1885L18.2914 2.176C17.1264 0.271003 13.6464 0.0510032 11.8714 1.1335C8.92392 2.931 8.49642 6.656 10.4014 8.7135C10.2764 8.5785 8.82142 8.0735 6.37892 9.5635C4.47392 10.726 3.88392 14.2035 4.94892 16.176C6.01142 18.151 6.16642 18.4585 6.16642 18.4585C6.16642 18.4585 4.52392 17.6835 1.93142 19.426C0.0789209 20.671 -0.586079 24.366 0.578921 26.271L6.81892 36.7935L15.4064 50.826C20.4564 57.9835 31.2214 60.4535 39.0439 55.701C44.3789 52.461 47.9964 45.616 47.4889 39.266V39.266Z"/><path fill="url(#paint2_radial_1_59)" d="M47.4889 39.266L47.1039 15.791C46.8539 13.561 45.6339 10.5685 41.4564 10.5685C36.5814 10.801 36.3914 15.7885 36.3914 15.7885L28.9664 2.526C27.1089 -0.298998 24.0639 -0.493998 22.1589 0.668502C20.2514 1.831 19.8364 4.1885 19.8364 4.1885L18.2914 2.176C17.1264 0.271003 13.6464 0.0510032 11.8714 1.1335C8.92392 2.931 8.49642 6.656 10.4014 8.7135C10.2764 8.5785 8.82142 8.0735 6.37892 9.5635C4.47392 10.726 3.88392 14.2035 4.94892 16.176C6.01142 18.151 6.16642 18.4585 6.16642 18.4585C6.16642 18.4585 4.52392 17.6835 1.93142 19.426C0.0789209 20.671 -0.586079 24.366 0.578921 26.271L6.81892 36.7935L15.4064 50.826C20.4564 57.9835 31.2214 60.4535 39.0439 55.701C44.3789 52.461 47.9964 45.616 47.4889 39.266V39.266Z"/><path fill="url(#paint3_radial_1_59)" d="M47.4889 39.266L47.1039 15.791C46.8539 13.561 45.6339 10.5685 41.4564 10.5685C36.5814 10.801 36.3914 15.7885 36.3914 15.7885L28.9664 2.526C27.1089 -0.298998 24.0639 -0.493998 22.1589 0.668502C20.2514 1.831 19.8364 4.1885 19.8364 4.1885L18.2914 2.176C17.1264 0.271003 13.6464 0.0510032 11.8714 1.1335C8.92392 2.931 8.49642 6.656 10.4014 8.7135C10.2764 8.5785 8.82142 8.0735 6.37892 9.5635C4.47392 10.726 3.88392 14.2035 4.94892 16.176C6.01142 18.151 6.16642 18.4585 6.16642 18.4585C6.16642 18.4585 4.52392 17.6835 1.93142 19.426C0.0789209 20.671 -0.586079 24.366 0.578921 26.271L6.81892 36.7935L15.4064 50.826C20.4564 57.9835 31.2214 60.4535 39.0439 55.701C44.3789 52.461 47.9964 45.616 47.4889 39.266V39.266Z"/><path fill="url(#paint4_radial_1_59)" d="M47.4889 39.266L47.1039 15.791C46.8539 13.561 45.6339 10.5685 41.4564 10.5685C36.5814 10.801 36.3914 15.7885 36.3914 15.7885L28.9664 2.526C27.1089 -0.298998 24.0639 -0.493998 22.1589 0.668502C20.2514 1.831 19.8364 4.1885 19.8364 4.1885L18.2914 2.176C17.1264 0.271003 13.6464 0.0510032 11.8714 1.1335C8.92392 2.931 8.49642 6.656 10.4014 8.7135C10.2764 8.5785 8.82142 8.0735 6.37892 9.5635C4.47392 10.726 3.88392 14.2035 4.94892 16.176C6.01142 18.151 6.16642 18.4585 6.16642 18.4585C6.16642 18.4585 4.52392 17.6835 1.93142 19.426C0.0789209 20.671 -0.586079 24.366 0.578921 26.271L6.81892 36.7935L15.4064 50.826C20.4564 57.9835 31.2214 60.4535 39.0439 55.701C44.3789 52.461 47.9964 45.616 47.4889 39.266V39.266Z"/><path fill="url(#paint5_radial_1_59)" d="M47.4889 39.266L47.1039 15.791C46.8539 13.561 45.6339 10.5685 41.4564 10.5685C36.5814 10.801 36.3914 15.7885 36.3914 15.7885L28.9664 2.526C27.1089 -0.298998 24.0639 -0.493998 22.1589 0.668502C20.2514 1.831 19.8364 4.1885 19.8364 4.1885L18.2914 2.176C17.1264 0.271003 13.6464 0.0510032 11.8714 1.1335C8.92392 2.931 8.49642 6.656 10.4014 8.7135C10.2764 8.5785 8.82142 8.0735 6.37892 9.5635C4.47392 10.726 3.88392 14.2035 4.94892 16.176C6.01142 18.151 6.16642 18.4585 6.16642 18.4585C6.16642 18.4585 4.52392 17.6835 1.93142 19.426C0.0789209 20.671 -0.586079 24.366 0.578921 26.271L6.81892 36.7935L15.4064 50.826C20.4564 57.9835 31.2214 60.4535 39.0439 55.701C44.3789 52.461 47.9964 45.616 47.4889 39.266V39.266Z"/><path fill="url(#paint6_radial_1_59)" d="M47.4889 39.266L47.1039 15.791C46.8539 13.561 45.6339 10.5685 41.4564 10.5685C36.5814 10.801 36.3914 15.7885 36.3914 15.7885L28.9664 2.526C27.1089 -0.298998 24.0639 -0.493998 22.1589 0.668502C20.2514 1.831 19.8364 4.1885 19.8364 4.1885L18.2914 2.176C17.1264 0.271003 13.6464 0.0510032 11.8714 1.1335C8.92392 2.931 8.49642 6.656 10.4014 8.7135C10.2764 8.5785 8.82142 8.0735 6.37892 9.5635C4.47392 10.726 3.88392 14.2035 4.94892 16.176C6.01142 18.151 6.16642 18.4585 6.16642 18.4585C6.16642 18.4585 4.52392 17.6835 1.93142 19.426C0.0789209 20.671 -0.586079 24.366 0.578921 26.271L6.81892 36.7935L15.4064 50.826C20.4564 57.9835 31.2214 60.4535 39.0439 55.701C44.3789 52.461 47.9964 45.616 47.4889 39.266V39.266Z"/><path fill="url(#paint7_radial_1_59)" d="M47.4889 39.266L47.1039 15.791C46.8539 13.561 45.6339 10.5685 41.4564 10.5685C36.5814 10.801 36.3914 15.7885 36.3914 15.7885L28.9664 2.526C27.1089 -0.298998 24.0639 -0.493998 22.1589 0.668502C20.2514 1.831 19.8364 4.1885 19.8364 4.1885L18.2914 2.176C17.1264 0.271003 13.6464 0.0510032 11.8714 1.1335C8.92392 2.931 8.49642 6.656 10.4014 8.7135C10.2764 8.5785 8.82142 8.0735 6.37892 9.5635C4.47392 10.726 3.88392 14.2035 4.94892 16.176C6.01142 18.151 6.16642 18.4585 6.16642 18.4585C6.16642 18.4585 4.52392 17.6835 1.93142 19.426C0.0789209 20.671 -0.586079 24.366 0.578921 26.271L6.81892 36.7935L15.4064 50.826C20.4564 57.9835 31.2214 60.4535 39.0439 55.701C44.3789 52.461 47.9964 45.616 47.4889 39.266V39.266Z"/><path fill="url(#paint8_radial_1_59)" d="M47.4889 39.266L47.1039 15.791C46.8539 13.561 45.6339 10.5685 41.4564 10.5685C36.5814 10.801 36.3914 15.7885 36.3914 15.7885L28.9664 2.526C27.1089 -0.298998 24.0639 -0.493998 22.1589 0.668502C20.2514 1.831 19.8364 4.1885 19.8364 4.1885L18.2914 2.176C17.1264 0.271003 13.6464 0.0510032 11.8714 1.1335C8.92392 2.931 8.49642 6.656 10.4014 8.7135C10.2764 8.5785 8.82142 8.0735 6.37892 9.5635C4.47392 10.726 3.88392 14.2035 4.94892 16.176C6.01142 18.151 6.16642 18.4585 6.16642 18.4585C6.16642 18.4585 4.52392 17.6835 1.93142 19.426C0.0789209 20.671 -0.586079 24.366 0.578921 26.271L6.81892 36.7935L15.4064 50.826C20.4564 57.9835 31.2214 60.4535 39.0439 55.701C44.3789 52.461 47.9964 45.616 47.4889 39.266V39.266Z"/><path fill="url(#paint9_radial_1_59)" fill-rule="evenodd" d="M6.05891 18.4185C5.79973 18.3613 5.53769 18.3179 5.27391 18.2885C5.65391 18.301 5.92391 18.371 6.05891 18.4185ZM6.15891 18.4385L6.39391 18.4985C7.20891 18.716 7.95891 19.061 8.46391 19.511C8.71891 19.736 9.10141 20.1985 9.59391 20.8985C10.0739 21.576 10.6014 22.3985 11.1489 23.281C11.5939 23.996 12.0539 24.7585 12.5039 25.506C13.1414 26.561 13.7564 27.576 14.2614 28.356C14.4414 28.6345 14.7247 28.83 15.0489 28.8997C15.3731 28.9693 15.7117 28.9073 15.9902 28.7273C16.2686 28.5472 16.4642 28.264 16.5338 27.9398C16.6034 27.6156 16.5414 27.277 16.3614 26.9985C15.7891 26.0992 15.2299 25.1916 14.6839 24.276C14.2339 23.5285 13.7589 22.7435 13.2739 21.9635C12.7526 21.1133 12.2074 20.2779 11.6389 19.4585C11.1339 18.7435 10.6114 18.0735 10.1264 17.641C9.22641 16.841 8.06641 16.356 7.03891 16.0835C6.29344 15.8819 5.52602 15.7728 4.75391 15.7585C4.81029 15.9015 4.87541 16.041 4.94891 16.176C5.87391 17.8935 6.11141 18.351 6.15641 18.4385H6.15891Z" clip-rule="evenodd"/><path fill="url(#paint10_radial_1_59)" fill-rule="evenodd" d="M10.2789 8.64351C10.0934 8.59229 9.90465 8.55387 9.71391 8.52851C9.9069 8.53863 10.0973 8.57739 10.2789 8.64351V8.64351ZM10.3589 8.66601C11.0589 8.87101 11.8964 9.29601 12.8389 10.136C12.9114 10.1985 13.0789 10.386 13.3464 10.7635C13.5964 11.1185 13.8964 11.5735 14.2264 12.1135C14.8914 13.1885 15.6639 14.5385 16.4514 15.9485C16.8689 16.6885 17.2914 17.4485 17.7014 18.1935C18.8364 20.2385 19.8989 22.156 20.5514 23.161C20.6376 23.305 20.7519 23.4302 20.8875 23.5291C21.0232 23.628 21.1773 23.6985 21.3408 23.7366C21.5043 23.7746 21.6737 23.7793 21.8391 23.7504C22.0044 23.7215 22.1622 23.6597 22.3031 23.5685C22.4441 23.4773 22.5652 23.3586 22.6592 23.2196C22.7533 23.0806 22.8184 22.9241 22.8507 22.7594C22.8829 22.5947 22.8817 22.4251 22.847 22.2609C22.8124 22.0967 22.745 21.9411 22.6489 21.8035C22.0489 20.8735 21.0564 19.0885 19.9464 17.0835L18.6339 14.726C17.9 13.4027 17.1399 12.0941 16.3539 10.801C16.047 10.2955 15.7235 9.80022 15.3839 9.31601C15.1277 8.93576 14.8319 8.58379 14.5014 8.26601C12.5114 6.49851 10.6764 6.00851 9.25891 5.99601C9.32641 6.98601 9.69641 7.92851 10.3589 8.66601V8.66601Z" clip-rule="evenodd"/><path fill="url(#paint11_radial_1_59)" fill-rule="evenodd" d="M19.8389 4.18601L20.0664 4.55601L23.2239 9.62601C25.1521 12.7352 27.0963 15.8344 29.0564 18.9235C29.2387 19.1973 29.5215 19.3883 29.8436 19.455C30.1657 19.5217 30.5011 19.4587 30.7771 19.2798C31.0531 19.1008 31.2474 18.8203 31.318 18.499C31.3885 18.1778 31.3296 17.8416 31.1539 17.5635C29.2015 14.4876 27.2648 11.4017 25.3439 8.30601L22.1914 3.23601L21.1914 1.62351L21.1339 1.53601C20.4919 2.30006 20.0472 3.21001 19.8389 4.18601Z" clip-rule="evenodd"/><g filter="url(#filter0_f_1_59)"><path fill="#F06B0C" fill-rule="evenodd" d="M44.7164 17.321L45.0714 38.926C45.5389 44.771 42.2089 51.071 37.2989 54.0535C36.3739 54.616 35.4014 55.0685 34.4039 55.416C29.0189 55.471 23.6464 52.981 20.5639 48.6135L14.4664 40.3035L10.4964 33.416C9.41642 31.6435 10.0339 28.2085 11.7564 27.051C14.1639 25.4335 15.6914 26.1535 15.6914 26.1535C15.6914 26.1535 13.7164 22.976 12.7289 21.141C11.7389 19.3085 12.2689 16.5135 14.0414 15.431C16.3114 14.046 18.1639 15.676 18.2789 15.8035C16.7939 13.791 16.6739 9.27101 19.4114 7.59851C21.0614 6.59101 24.0489 6.35601 25.1314 8.12851L26.5689 9.99851C26.5689 9.99851 26.9539 7.80601 28.7264 6.72351L28.8764 6.63851L34.8564 17.3235C34.8564 17.3235 34.9814 14.1635 37.5814 12.966L41.9564 20.781C41.9564 20.781 42.0739 17.706 44.5664 16.446C44.6364 16.746 44.6839 17.041 44.7164 17.321V17.321Z" clip-rule="evenodd"/></g><path fill="url(#paint12_radial_1_59)" d="M24.0564 8.12101C23.7297 8.05638 23.3969 8.02705 23.0639 8.03351C23.5239 7.99851 23.8589 8.05601 24.0564 8.11851V8.12101Z"/><g filter="url(#filter1_f_1_59)"><path stroke="url(#paint13_linear_1_59)" stroke-linecap="round" stroke-linejoin="round" stroke-width="2" d="M26.2089 5.1785C27.2764 5.2535 29.8114 6.05351 31.0614 7.98851C32.3114 9.92601 35.8439 16.7385 37.9289 20.021"/></g><defs><filter id="filter0_f_1_59" width="40.155" height="53.778" x="7.46" y="4.139" color-interpolation-filters="sRGB" filterUnits="userSpaceOnUse"><feFlood flood-opacity="0" result="BackgroundImageFix"/><feBlend in="SourceGraphic" in2="BackgroundImageFix" mode="normal" result="shape"/><feGaussianBlur result="effect1_foregroundBlur_1_59" stdDeviation="1.25"/></filter><filter id="filter1_f_1_59" width="14.72" height="17.843" x="24.709" y="3.678" color-interpolation-filters="sRGB" filterUnits="userSpaceOnUse"><feFlood flood-opacity="0" result="BackgroundImageFix"/><feBlend in="SourceGraphic" in2="BackgroundImageFix" mode="normal" result="shape"/><feGaussianBlur result="effect1_foregroundBlur_1_59" stdDeviation=".25"/></filter><linearGradient id="paint0_linear_1_59" x1="40.116" x2="20.896" y1="56.584" y2="21.896" gradientUnits="userSpaceOnUse"><stop stop-color="#FF6C4C"/><stop offset="1" stop-color="#FF6D47" stop-opacity="0"/></linearGradient><radialGradient id="paint1_radial_1_59" cx="0" cy="0" r="1" gradientTransform="translate(13.0064 15.176) rotate(58.4429) scale(11.6438 4.65464)" gradientUnits="userSpaceOnUse"><stop stop-color="#FFAF33"/><stop offset="1" stop-color="#FA8221"/></radialGradient><radialGradient id="paint2_radial_1_59" cx="0" cy="0" r="1" gradientTransform="translate(10.1939 11.4285) rotate(92.0826) scale(4.29972 4.27728)" gradientUnits="userSpaceOnUse"><stop stop-color="#FFAE28"/><stop offset="1" stop-color="#FFAF31" stop-opacity="0"/></radialGradient><radialGradient id="paint3_radial_1_59" cx="0" cy="0" r="1" gradientTransform="translate(7.14668 23.6909) rotate(57.331) scale(12.1577 3.48257)" gradientUnits="userSpaceOnUse"><stop stop-color="#FE9E29"/><stop offset="1" stop-color="#FE9E28" stop-opacity="0"/></radialGradient><radialGradient id="paint4_radial_1_59" cx="0" cy="0" r="1" gradientTransform="translate(6.36642 22.366) rotate(63.4349) scale(5.06609 4.14173)" gradientUnits="userSpaceOnUse"><stop stop-color="#FF9D25"/><stop offset="1" stop-color="#FF9F24" stop-opacity="0"/></radialGradient><radialGradient id="paint5_radial_1_59" cx="0" cy="0" r="1" gradientTransform="translate(16.2864 5.0985) rotate(58.3392) scale(11.0142 4.76013)" gradientUnits="userSpaceOnUse"><stop stop-color="#FFC133"/><stop offset="1" stop-color="#FFC93C" stop-opacity="0"/></radialGradient><radialGradient id="paint6_radial_1_59" cx="0" cy="0" r="1" gradientTransform="translate(15.8189 3.0685) rotate(52.3738) scale(4.73479 3.61832)" gradientUnits="userSpaceOnUse"><stop stop-color="#FFC53A"/><stop offset="1" stop-color="#FFC83C" stop-opacity="0"/></radialGradient><radialGradient id="paint7_radial_1_59" cx="0" cy="0" r="1" gradientTransform="translate(24.8039 10.9585) rotate(90.6384) scale(92.8183 80.2677)" gradientUnits="userSpaceOnUse"><stop offset=".37" stop-color="#FF6C5E" stop-opacity="0"/><stop offset=".54" stop-color="#FF6B5E"/></radialGradient><radialGradient id="paint8_radial_1_59" cx="0" cy="0" r="1" gradientTransform="translate(24.5664 1.036) rotate(59.816) scale(8.85714 9.73988)" gradientUnits="userSpaceOnUse"><stop stop-color="#FFAC31"/><stop offset="1" stop-color="#FFA92E" stop-opacity="0"/></radialGradient><radialGradient id="paint9_radial_1_59" cx="0" cy="0" r="1" gradientTransform="translate(10.0364 24.866) rotate(-35.0958) scale(3.53294 10.8387)" gradientUnits="userSpaceOnUse"><stop stop-color="#DB5703"/><stop offset=".595" stop-color="#C94A04"/><stop offset="1" stop-color="#D65A05" stop-opacity="0"/></radialGradient><radialGradient id="paint10_radial_1_59" cx="0" cy="0" r="1" gradientTransform="translate(13.4739 17.286) rotate(-42.6141) scale(5.3079 17.0344)" gradientUnits="userSpaceOnUse"><stop stop-color="#DB5703"/><stop offset=".595" stop-color="#C94A04"/><stop offset="1" stop-color="#D65A05" stop-opacity="0"/></radialGradient><radialGradient id="paint11_radial_1_59" cx="0" cy="0" r="1" gradientTransform="translate(21.8339 11.8185) rotate(-42.1844) scale(3.37388 11.077)" gradientUnits="userSpaceOnUse"><stop stop-color="#DB5703"/><stop offset=".595" stop-color="#C94A04"/><stop offset="1" stop-color="#D65A05" stop-opacity="0"/></radialGradient><radialGradient id="paint12_radial_1_59" cx="0" cy="0" r="1" gradientTransform="translate(28.8646 13.9674) rotate(57.5209) scale(15.4221 2.87075)" gradientUnits="userSpaceOnUse"><stop stop-color="#B64200"/><stop offset="1" stop-color="#FFB02E" stop-opacity="0"/></radialGradient><linearGradient id="paint13_linear_1_59" x1="28.554" x2="33.319" y1="10.921" y2="8.188" gradientUnits="userSpaceOnUse"><stop stop-color="#FDB137"/><stop offset=".447" stop-color="#FFBA3C" stop-opacity="0"/><stop offset="1" stop-color="#FCAD33" stop-opacity="0"/></linearGradient></defs></svg>