<svg width="21" height="21" viewBox="0 0 21 21" fill="none" xmlns="http://www.w3.org/2000/svg">
<path fill-rule="evenodd" clip-rule="evenodd" d="M2.49388e-07 1.68484C2.49388e-07 1.23799 0.177509 0.809446 0.493476 0.493478C0.809444 0.177511 1.23799 2.24612e-06 1.68483 2.24612e-06H18.48C18.7014 -0.000359426 18.9208 0.0429599 19.1255 0.12748C19.3301 0.212 19.5161 0.336061 19.6728 0.49256C19.8295 0.64906 19.9537 0.834924 20.0385 1.03951C20.1232 1.2441 20.1668 1.46339 20.1667 1.68484V18.48C20.1669 18.7015 20.1235 18.9208 20.0389 19.1255C19.9542 19.3302 19.8301 19.5162 19.6735 19.6729C19.5169 19.8295 19.331 19.9538 19.1264 20.0385C18.9217 20.1232 18.7024 20.1668 18.4809 20.1667H1.68483C1.4635 20.1667 1.24434 20.1231 1.03986 20.0383C0.835391 19.9536 0.649615 19.8294 0.493152 19.6729C0.336689 19.5163 0.212604 19.3305 0.127987 19.126C0.0433705 18.9214 -0.000120171 18.7022 2.49388e-07 18.4809V1.68484ZM7.98233 7.689H10.7131V9.06034C11.1072 8.272 12.1156 7.5625 13.6308 7.5625C16.5357 7.5625 17.2242 9.13275 17.2242 12.0138V17.3507H14.2844V12.6702C14.2844 11.0293 13.8902 10.1035 12.8892 10.1035C11.5005 10.1035 10.923 11.1018 10.923 12.6702V17.3507H7.98233V7.689ZM2.94067 17.2251H5.88133V7.5625H2.94067V17.2242V17.2251ZM6.30208 4.411C6.30763 4.66279 6.26282 4.91314 6.1703 5.14737C6.07778 5.38161 5.93941 5.595 5.7633 5.77503C5.58719 5.95506 5.37689 6.0981 5.14475 6.19576C4.91261 6.29341 4.6633 6.34372 4.41146 6.34372C4.15961 6.34372 3.91031 6.29341 3.67817 6.19576C3.44603 6.0981 3.23573 5.95506 3.05962 5.77503C2.88351 5.595 2.74514 5.38161 2.65261 5.14737C2.56009 4.91314 2.51529 4.66279 2.52083 4.411C2.53172 3.91679 2.73569 3.44648 3.08906 3.1008C3.44244 2.75512 3.91712 2.56155 4.41146 2.56155C4.9058 2.56155 5.38048 2.75512 5.73386 3.1008C6.08723 3.44648 6.2912 3.91679 6.30208 4.411V4.411Z" fill="black"/>
</svg>
