<svg width="206" height="131" viewBox="0 0 206 131" fill="none" xmlns="http://www.w3.org/2000/svg">
<path d="M187.74 32.3516H186.872L187.299 31.6038L169.012 -0.191742H56.6825L74.9699 31.6592L75.4109 32.407L93.6984 64.2025L94.1256 64.9503L112.413 96.8013L112.854 97.5491L131.141 129.4L131.569 130.148H168.144L168.571 129.4L186.872 97.5491L187.299 96.8013L205.587 64.9503L206 64.2025L187.74 32.3516ZM168.144 64.978L149.856 96.829L150.283 97.5768H149.498L149.925 96.829L131.582 64.978H130.728L131.155 64.2441L112.84 32.3516H111.986L112.413 31.6176L112.84 32.3516H149.498L149.925 31.6176L150.352 32.3516L168.64 64.2025L169.081 64.9503L168.144 64.978Z" fill="url(#paint0_linear_333_43)"/>
<path d="M112.413 96.8151L111.986 97.5629H75.4109L74.9837 96.8151L74.5427 97.5629H37.954L37.5268 96.8151L19.2394 64.978L18.8122 64.2441L0.510952 32.3931L0.0837402 31.6592L18.385 -0.191742H56.6825L74.9699 31.6453L74.5427 32.3931H37.9678L37.5406 31.6592L37.1134 32.3931H37.9678L56.2552 64.2302L55.8143 64.978H94.1255L112.413 96.8151Z" fill="url(#paint1_linear_333_43)"/>
<defs>
<linearGradient id="paint0_linear_333_43" x1="106.283" y1="-39.099" x2="210.894" y2="3.4191" gradientUnits="userSpaceOnUse">
<stop offset="0.186575" stop-color="#B716FF"/>
<stop offset="1" stop-color="#2E3DFF"/>
</linearGradient>
<linearGradient id="paint1_linear_333_43" x1="37.3972" y1="-29.3722" x2="116.027" y2="2.68322" gradientUnits="userSpaceOnUse">
<stop offset="0.186575" stop-color="#B716FF"/>
<stop offset="1" stop-color="#2E3DFF"/>
</linearGradient>
</defs>
</svg>
