<svg width="21" height="18" viewBox="0 0 21 18" fill="none" xmlns="http://www.w3.org/2000/svg">
<path d="M18.8786 8.72607L19.865 8.89047L19.865 8.89047L18.8786 8.72607ZM17.9453 14.3261L16.9589 14.1617L16.9589 14.1617L17.9453 14.3261ZM3.05441 14.3261L4.04081 14.1617L3.05441 14.3261ZM2.12108 8.72607L1.13469 8.89047L2.12108 8.72607ZM1.98598 6.30359L1.04856 5.9554L1.98598 6.30359ZM2.8662 5.26514L2.36864 4.39771L2.36864 4.39771L2.8662 5.26514ZM4.37596 16.8248L3.96665 17.7372L3.96665 17.7372L4.37596 16.8248ZM3.52919 16.1074L4.36189 15.5537L4.36189 15.5537L3.52919 16.1074ZM17.4707 16.1074L16.638 15.5537L16.638 15.5537L17.4707 16.1074ZM16.6242 16.8248L16.2149 15.9124L16.2149 15.9124L16.6242 16.8248ZM19.0138 6.30359L18.0764 6.65177L19.0138 6.30359ZM18.1343 5.26514L18.6319 4.39771L18.1343 5.26514ZM13.5 5C13.5 5.55228 13.9477 6 14.5 6C15.0523 6 15.5 5.55228 15.5 5H13.5ZM5.49999 5C5.49999 5.55228 5.9477 6 6.49999 6C7.05227 6 7.49999 5.55228 7.49999 5H5.49999ZM17.8922 8.56168L16.9589 14.1617L18.9317 14.4905L19.865 8.89047L17.8922 8.56168ZM14.7893 16H6.21092V18H14.7893V16ZM4.04081 14.1617L3.10747 8.56168L1.13469 8.89047L2.06802 14.4905L4.04081 14.1617ZM5.27733 6H15.7224V4H5.27733V6ZM3.10747 8.56168C2.99771 7.90309 2.92678 7.47238 2.90072 7.14266C2.8754 6.82226 2.90378 6.70463 2.92341 6.65177L1.04856 5.9554C0.882646 6.40208 0.871737 6.85473 0.906938 7.30021C0.941403 7.73635 1.03079 8.26712 1.13469 8.89047L3.10747 8.56168ZM5.27733 4C4.64533 4 4.10722 3.99912 3.67143 4.03687C3.22623 4.07544 2.78182 4.16071 2.36864 4.39771L3.36376 6.13257C3.41281 6.10443 3.52415 6.05713 3.84406 6.02941C4.17337 6.00088 4.60971 6 5.27733 6V4ZM2.92341 6.65177C3.00461 6.43316 3.16041 6.24921 3.36376 6.13257L2.36864 4.39771C1.76072 4.74642 1.293 5.29729 1.04856 5.9554L2.92341 6.65177ZM6.21092 16C5.71433 16 5.39727 15.9993 5.15414 15.981C4.92359 15.9635 4.83343 15.934 4.78527 15.9124L3.96665 17.7372C4.30905 17.8908 4.65484 17.9489 5.00335 17.9753C5.3393 18.0007 5.74445 18 6.21092 18V16ZM2.06802 14.4905C2.14473 14.9508 2.21076 15.3505 2.29116 15.6779C2.37455 16.0174 2.48879 16.3488 2.6965 16.6612L4.36189 15.5537C4.33257 15.5096 4.28858 15.4254 4.23342 15.2008C4.17527 14.964 4.12242 14.6513 4.04081 14.1617L2.06802 14.4905ZM4.78527 15.9124C4.61322 15.8352 4.46641 15.7109 4.36189 15.5537L2.6965 16.6612C3.00986 17.1324 3.45016 17.5055 3.96665 17.7372L4.78527 15.9124ZM16.9589 14.1617C16.8773 14.6514 16.8245 14.9641 16.7663 15.2009C16.7112 15.4255 16.6673 15.5097 16.638 15.5537L18.3034 16.6612C18.5112 16.3487 18.6253 16.0172 18.7087 15.6777C18.789 15.3504 18.855 14.9507 18.9317 14.4905L16.9589 14.1617ZM14.7893 18C15.2558 18 15.6609 18.0007 15.9969 17.9753C16.3454 17.9489 16.6911 17.8908 17.0335 17.7372L16.2149 15.9124C16.1667 15.934 16.0766 15.9635 15.8461 15.981C15.6029 15.9993 15.2859 16 14.7893 16V18ZM16.638 15.5537C16.5333 15.7112 16.3866 15.8354 16.2149 15.9124L17.0335 17.7372C17.5503 17.5054 17.9902 17.1321 18.3034 16.6612L16.638 15.5537ZM19.865 8.89047C19.9689 8.26716 20.0583 7.73639 20.0928 7.30027C20.128 6.85483 20.1172 6.40214 19.9513 5.9554L18.0764 6.65177C18.096 6.70458 18.1244 6.82216 18.099 7.14259C18.073 7.47234 18.002 7.90305 17.8922 8.56168L19.865 8.89047ZM15.7224 6C16.39 6 16.8266 6.00088 17.1561 6.02941C17.4764 6.05715 17.5878 6.10449 17.6368 6.13257L18.6319 4.39771C18.2186 4.16065 17.7739 4.07542 17.3286 4.03687C16.8927 3.99912 16.3544 4 15.7224 4V6ZM19.9513 5.9554C19.7071 5.29805 19.2405 4.74682 18.6319 4.39771L17.6368 6.13257C17.8394 6.2488 17.9949 6.4324 18.0764 6.65177L19.9513 5.9554ZM15.5 5C15.5 2.23858 13.2614 0 10.5 0V2C12.1568 2 13.5 3.34315 13.5 5H15.5ZM10.5 0C7.73856 0 5.49999 2.23858 5.49999 5H7.49999C7.49999 3.34315 8.84313 2 10.5 2V0Z" fill="#17131C"/>
</svg>
