<svg width="153" height="132" viewBox="0 0 153 132" fill="none" xmlns="http://www.w3.org/2000/svg">
<circle cx="3" cy="3" r="3" fill="#852FF2"/>
<circle cx="3" cy="24" r="3" fill="#852FF2"/>
<circle cx="3" cy="45" r="3" fill="#852FF2"/>
<circle cx="3" cy="66" r="3" fill="#852FF2"/>
<circle cx="3" cy="87" r="3" fill="#852FF2"/>
<circle cx="3" cy="108" r="3" fill="#852FF2"/>
<circle cx="3" cy="129" r="3" fill="#852FF2"/>
<circle cx="24" cy="3" r="3" fill="#852FF2"/>
<circle cx="24" cy="24" r="3" fill="#852FF2"/>
<circle cx="24" cy="45" r="3" fill="#852FF2"/>
<circle cx="24" cy="66" r="3" fill="#852FF2"/>
<circle cx="24" cy="87" r="3" fill="#852FF2"/>
<circle cx="24" cy="108" r="3" fill="#852FF2"/>
<circle cx="24" cy="129" r="3" fill="#852FF2"/>
<circle cx="45" cy="3" r="3" fill="#852FF2"/>
<circle cx="45" cy="24" r="3" fill="#852FF2"/>
<circle cx="45" cy="45" r="3" fill="#852FF2"/>
<circle cx="45" cy="66" r="3" fill="#852FF2"/>
<circle cx="45" cy="87" r="3" fill="#852FF2"/>
<circle cx="45" cy="108" r="3" fill="#852FF2"/>
<circle cx="45" cy="129" r="3" fill="#852FF2"/>
<circle cx="66" cy="3" r="3" fill="#852FF2"/>
<circle cx="66" cy="24" r="3" fill="#852FF2"/>
<circle cx="66" cy="45" r="3" fill="#852FF2"/>
<circle cx="66" cy="66" r="3" fill="#852FF2"/>
<circle cx="66" cy="87" r="3" fill="#852FF2"/>
<circle cx="66" cy="108" r="3" fill="#852FF2"/>
<circle cx="66" cy="129" r="3" fill="#852FF2"/>
<circle cx="87" cy="3" r="3" fill="#852FF2"/>
<circle cx="87" cy="24" r="3" fill="#852FF2"/>
<circle cx="87" cy="45" r="3" fill="#852FF2"/>
<circle cx="87" cy="66" r="3" fill="#852FF2"/>
<circle cx="87" cy="87" r="3" fill="#852FF2"/>
<circle cx="87" cy="108" r="3" fill="#852FF2"/>
<circle cx="87" cy="129" r="3" fill="#852FF2"/>
<circle cx="108" cy="3" r="3" fill="#852FF2"/>
<circle cx="108" cy="24" r="3" fill="#852FF2"/>
<circle cx="108" cy="45" r="3" fill="#852FF2"/>
<circle cx="108" cy="66" r="3" fill="#852FF2"/>
<circle cx="108" cy="87" r="3" fill="#852FF2"/>
<circle cx="108" cy="108" r="3" fill="#852FF2"/>
<circle cx="108" cy="129" r="3" fill="#852FF2"/>
<circle cx="129" cy="3" r="3" fill="#852FF2"/>
<circle cx="129" cy="24" r="3" fill="#852FF2"/>
<circle cx="129" cy="45" r="3" fill="#852FF2"/>
<circle cx="129" cy="66" r="3" fill="#852FF2"/>
<circle cx="129" cy="87" r="3" fill="#852FF2"/>
<circle cx="129" cy="108" r="3" fill="#852FF2"/>
<circle cx="129" cy="129" r="3" fill="#852FF2"/>
<circle cx="150" cy="3" r="3" fill="#852FF2"/>
<circle cx="150" cy="24" r="3" fill="#852FF2"/>
<circle cx="150" cy="45" r="3" fill="#852FF2"/>
<circle cx="150" cy="66" r="3" fill="#852FF2"/>
<circle cx="150" cy="87" r="3" fill="#852FF2"/>
<circle cx="150" cy="108" r="3" fill="#852FF2"/>
<circle cx="150" cy="129" r="3" fill="#852FF2"/>
</svg>
